<mxfile host="app.diagrams.net" modified="2024-05-25T17:07:03.785Z" agent="Mozilla/5.0 (Windows NT 10.0; Win64; x64) AppleWebKit/537.36 (KHTML, like Gecko) Chrome/125.0.0.0 Safari/537.36" version="24.0.0" etag="VbGRQ4KyaHHWDk2rrYln" type="github">
  <diagram name="Page-1" id="n2R9BX6HF7tKCabKM3Kr">
    <mxGraphModel>
      <root>
        <mxCell id="0" />
        <mxCell id="1" parent="0" />
      </root>
    </mxGraphModel>
  </diagram>
</mxfile>
